<?xml version="1.0" encoding="UTF-8"?><svg id="Layer_1" xmlns="http://www.w3.org/2000/svg" viewBox="0 0 76 76"><path d="M70.903,51.344501L20.7354,9.97021l-6.52512,3.76719,27.54252,60.0956,29.1502-16.833302v-5.655197Z" style="fill:#ffd300;"/><path d="M37.998699,0l-10.848499,6.26567-6.415,3.704411,50.167602,41.374318V18.9984L38.000999,0h-.0023Z" style="fill:#ffe10e;"/><path d="M41.752399,73.832802L14.33102,13.6658l-9.23402,5.3325v16.8095l24.829201,35.528702,8.072598,4.663399,3.753601-2.167099Z" style="fill:#fec800;"/><path d="M5.097,56.9995l24.829201,14.337002L5.097,35.807899v21.191601Z" style="fill:#f9b000;"/><path d="M33.3778,38.072498v12.481403l9.141102,4.568497h.103699v-17.0499h-9.244801Z" style="fill:#f9b000;"/><path d="M38.000999,20.6091l-18.487499,9.861799v24.653601h13.8641v-17.052002h9.244799v17.052002h13.863903v-24.653601l-18.485302-9.861799Z" style="fill:#fff;"/></svg>