<svg width="20" height="18" viewBox="0 0 20 18" fill="none" xmlns="http://www.w3.org/2000/svg">
<path d="M10.8327 4.83333L9.90306 2.9741C9.63552 2.439 9.50174 2.17144 9.30216 1.97597C9.12567 1.80311 8.91295 1.67164 8.67941 1.59109C8.41532 1.5 8.11619 1.5 7.51793 1.5H4.33268C3.39926 1.5 2.93255 1.5 2.57603 1.68166C2.26243 1.84144 2.00746 2.09641 1.84767 2.41002C1.66602 2.76654 1.66602 3.23325 1.66602 4.16667V4.83333M1.66602 4.83333H14.3327C15.7328 4.83333 16.4329 4.83333 16.9677 5.10582C17.4381 5.3455 17.8205 5.72795 18.0602 6.19836C18.3327 6.73314 18.3327 7.4332 18.3327 8.83333V12.5C18.3327 13.9001 18.3327 14.6002 18.0602 15.135C17.8205 15.6054 17.4381 15.9878 16.9677 16.2275C16.4329 16.5 15.7328 16.5 14.3327 16.5H5.66602C4.26588 16.5 3.56582 16.5 3.03104 16.2275C2.56063 15.9878 2.17818 15.6054 1.9385 15.135C1.66602 14.6002 1.66602 13.9001 1.66602 12.5V4.83333Z" stroke="#38332F" stroke-width="2" stroke-linecap="round" stroke-linejoin="round"/>
</svg>
