
<svg xmlns="http://www.w3.org/2000/svg" version="1.1" viewBox="0 0 24 24">
  <path class="st0" d="M17,23c-1.1,0-2-.9-2-2s.9-2,2-2,2,.9,2,2-.9,2-2,2ZM17,21h0s0,0,0,0ZM9,23c-1.1,0-2-.9-2-2s.9-2,2-2,2,.9,2,2-.9,2-2,2ZM9,21h0s0,0,0,0ZM17.4,17.5h-8.6c-1.1,0-1.7,0-2.3-.3-.5-.2-1-.6-1.3-1.1-.4-.6-.4-1.2-.6-2.2L3.1,3h-1.1c-.6,0-1-.4-1-1s.4-1,1-1h1.3c.3,0,.6,0,.9.1.3.1.5.3.6.6.2.3.2.5.3.9l.4,2.5h15.6c.4,0,.8,0,1.1.2.3.2.5.5.7.8.1.4,0,.7,0,1.1l-1.3,7c-.2,1-.3,1.6-.7,2.1-.3.5-.8.8-1.3,1-.6.3-1.2.3-2.2.3Z" fill="#F9B000"/>
</svg>