<?xml version="1.0" encoding="utf-8"?>
<!-- Generator: Adobe Illustrator 22.0.1, SVG Export Plug-In . SVG Version: 6.00 Build 0)  -->
<svg version="1.1" id="Layer_1" xmlns="http://www.w3.org/2000/svg" xmlns:xlink="http://www.w3.org/1999/xlink" x="0px" y="0px"
	 viewBox="0 0 40 40" style="enable-background:new 0 0 40 40;" xml:space="preserve">
<style type="text/css">
	.st0{fill:#FBAC30;}
</style>
<path class="st0" d="M39.6,9.4l-8.9-8.9c-0.6-0.6-1.5-0.6-2.1,0L2.7,26.2c-0.2,0.2-0.4,0.5-0.4,0.8L0,38.2c-0.1,0.5,0.1,1,0.4,1.4
	C0.7,39.8,1.1,40,1.5,40c0.1,0,0.2,0,0.3,0L13,37.7c0.3-0.1,0.6-0.2,0.8-0.4l25.8-25.8c0.3-0.3,0.4-0.7,0.4-1.1
	C40,10,39.8,9.6,39.6,9.4z M16.3,30.5l-6.8-6.8L24.2,9l6.8,6.8L16.3,30.5z M11.9,34.8l-8.5,1.7l1.7-8.5l2.2-2.2l6.8,6.8L11.9,34.8z
	 M33.1,13.7l-6.8-6.8l3.2-3.2l6.8,6.8L33.1,13.7z"/>
</svg>
