<svg width="127" height="56" viewBox="0 0 127 56" fill="none" xmlns="http://www.w3.org/2000/svg">
<g clip-path="url(#clip0_449_4967)">
<path d="M48.3915 37.8328L11.5 7.34644L6.70166 10.1223L26.9554 54.4032L48.3915 41.9997V37.8328Z" fill="#FFD300"/>
<path d="M24.195 0L16.2174 4.61681L11.5 7.34637L48.3915 37.8327V33.3897V13.9988L24.1967 0H24.195Z" fill="#FFE10E"/>
<path d="M26.9551 54.4032L6.79038 10.0696L0 13.9988V26.3848L18.2585 52.5638L24.1948 56L26.9551 54.4032Z" fill="#FEC800"/>
<path d="M0 41.9997L18.2585 52.5638L0 26.3848V41.9997Z" fill="#F9B000"/>
<path d="M20.7964 28.0535V37.2503L27.5185 40.6165H27.5947V28.0535H20.7964Z" fill="#F9B000"/>
<path d="M24.1966 15.1858L10.6016 22.4524V40.6181H20.7967V28.0536H27.595V40.6181H37.7901V22.4524L24.1966 15.1858Z" fill="white"/>
<path fill-rule="evenodd" clip-rule="evenodd" d="M59.1416 24.9534C59.1416 24.7961 59.2696 24.6687 59.4272 24.6687H126.045C126.202 24.6687 126.33 24.7961 126.33 24.9534C126.33 25.1107 126.202 25.2381 126.045 25.2381H59.4272C59.2696 25.2381 59.1416 25.1107 59.1416 24.9534Z" fill="#F9B000"/>
<path d="M126.054 42.1478H59.4198C59.2666 42.1478 59.1416 42.02 59.1416 41.8631C59.1416 41.7062 59.2666 41.5784 59.4198 41.5784H126.052C126.206 41.5784 126.33 41.7062 126.33 41.8631C126.33 42.02 126.206 42.1478 126.052 42.1478" fill="#DBD6D1"/>
<path d="M59.1416 3.80513C59.1416 3.48104 59.4198 3.20483 59.7443 3.20483C60.0686 3.20483 60.3453 3.48264 60.3453 3.80513V10.7853H70.7056V3.80513C70.7056 3.48104 70.9821 3.20483 71.3066 3.20483C71.631 3.20483 71.9075 3.48264 71.9075 3.80513V18.966C71.9075 19.2902 71.6295 19.5663 71.3066 19.5663C70.9836 19.5663 70.7056 19.2885 70.7056 18.966V11.8933H60.3453V18.966C60.3453 19.2902 60.0671 19.5663 59.7443 19.5663C59.4214 19.5663 59.1416 19.2885 59.1416 18.966V3.80513Z" fill="#38332F"/>
<path d="M75.2671 11.4317V11.3855C75.2671 6.97978 78.5316 3.03613 83.4369 3.03613C88.3424 3.03613 91.5603 6.93517 91.5603 11.3393V11.3855C91.5603 15.7913 88.2977 19.7349 83.3922 19.7349C78.4868 19.7349 75.2688 15.8359 75.2688 11.4317M90.3096 11.4317V11.3855C90.3096 7.39566 87.394 4.11965 83.3905 4.11965C79.3873 4.11965 76.5163 7.34786 76.5163 11.3393V11.3855C76.5163 15.3754 79.4321 18.6514 83.4369 18.6514C87.4419 18.6514 90.3096 15.4216 90.3096 11.4317Z" fill="#38332F"/>
<path d="M94.9243 3.80596C94.9243 3.48141 95.2011 3.20483 95.526 3.20483H95.6412C95.8957 3.20483 96.0813 3.34392 96.2429 3.55176L102.564 12.8548L108.885 3.55176C109.026 3.34392 109.232 3.20483 109.488 3.20483H109.603C109.928 3.20483 110.205 3.48301 110.205 3.80596V18.9651C110.205 19.2897 109.928 19.5663 109.603 19.5663C109.278 19.5663 109 19.2881 109 18.9651V5.40309L103.049 14.0586C102.91 14.2665 102.748 14.3592 102.54 14.3592C102.332 14.3592 102.169 14.2665 102.029 14.0586L96.0781 5.40309V18.9876C96.0781 19.3121 95.8236 19.5663 95.4988 19.5663C95.1739 19.5663 94.9194 19.3121 94.9194 18.9876V3.80596H94.9243Z" fill="#38332F"/>
<path d="M114.572 18.8031V3.9682C114.572 3.64714 114.85 3.37354 115.175 3.37354H125.657C125.959 3.37354 126.213 3.625 126.213 3.92234C126.213 4.21966 125.959 4.47112 125.657 4.47112H115.779V10.7672H124.614C124.915 10.7672 125.17 11.0187 125.17 11.316C125.17 11.6133 124.914 11.8648 124.614 11.8648H115.779V18.2985H125.774C126.075 18.2985 126.33 18.5499 126.33 18.8488C126.33 19.1478 126.075 19.3976 125.774 19.3976H115.176C114.851 19.3976 114.574 19.1225 114.574 18.8031" fill="#38332F"/>
<path d="M75.0421 33.3073C75.4451 33.0835 75.8512 32.6736 75.8512 31.9257C75.8512 31.5334 75.7153 31.1935 75.4451 30.914C75.0785 30.5534 74.5222 30.3628 73.8396 30.3628H71.6462C71.4235 30.3628 71.2354 30.5551 71.2354 30.7838V36.0628C71.2354 36.2915 71.4235 36.4838 71.6462 36.4838H73.9503C75.3266 36.4838 76.1814 35.8294 76.1814 34.759C76.1814 34.0745 75.799 33.5853 75.0421 33.3058M73.9676 35.7199H72.0571V33.7774H73.8475C74.8115 33.7774 75.3424 34.1126 75.3424 34.7352C75.3424 35.3578 74.8288 35.7182 73.9661 35.7182M72.0587 33.0199V31.1299H73.7826C74.5538 31.1299 75.0152 31.4636 75.0152 32.0369C75.0152 32.6531 74.5365 33.0199 73.7321 33.0199H72.0587Z" fill="#736B63"/>
<path d="M87.2147 30.6439C87.1214 30.4152 86.9524 30.2961 86.7265 30.2961H86.6917C86.4609 30.2961 86.2998 30.409 86.1955 30.6407L83.792 35.9263C83.7572 35.9962 83.7397 36.0645 83.7397 36.1407C83.7397 36.3551 83.9121 36.5282 84.1254 36.5282C84.3072 36.5282 84.4477 36.4281 84.5205 36.2504L85.1178 34.9099H88.2656L88.8629 36.2328C88.9433 36.4202 89.0903 36.5282 89.2658 36.5282C89.4871 36.5282 89.6686 36.3457 89.6686 36.1249C89.6686 36.066 89.6529 36.0009 89.6181 35.9199L87.2147 30.6439ZM87.9305 34.1364H85.4527L86.6917 31.3666L87.9305 34.1364Z" fill="#736B63"/>
<path d="M99.8023 33.0231C98.4955 32.7419 98.257 32.4387 98.257 31.9272C98.257 31.4158 98.7421 31.0458 99.4373 31.0458C99.9888 31.0458 100.449 31.2014 100.924 31.5492C100.995 31.6017 101.071 31.624 101.166 31.624C101.387 31.624 101.568 31.4428 101.568 31.219C101.568 31.0346 101.444 30.9219 101.391 30.8806C100.814 30.4645 100.216 30.2771 99.4548 30.2771C98.279 30.2771 97.4257 30.9965 97.4257 32.0018C97.4257 33.1231 98.2459 33.5313 99.48 33.8012C100.728 34.0665 100.957 34.3636 100.957 34.8718C100.957 35.4213 100.447 35.8041 99.717 35.8041C98.987 35.8041 98.4624 35.5976 97.9014 35.1211C97.8397 35.0592 97.7402 35.0211 97.6407 35.0211C97.4146 35.0211 97.2393 35.2021 97.2393 35.434C97.2393 35.5674 97.2994 35.688 97.3958 35.7516C98.0847 36.3027 98.8353 36.5695 99.6901 36.5695C100.929 36.5695 101.795 35.8422 101.795 34.7844C101.795 33.8537 101.199 33.3264 99.8008 33.0199" fill="#736B63"/>
<path d="M113.931 35.712H110.624V33.7871H113.507C113.719 33.7871 113.891 33.6138 113.891 33.3994C113.891 33.1851 113.714 33.012 113.507 33.012H110.624V31.1379H113.888C114.102 31.1379 114.274 30.9648 114.274 30.7504C114.274 30.536 114.102 30.3628 113.888 30.3628H110.205C109.982 30.3628 109.794 30.5551 109.794 30.7838V36.0628C109.794 36.2915 109.982 36.4838 110.205 36.4838H113.931C114.144 36.4838 114.317 36.3106 114.317 36.0962C114.317 35.8818 114.144 35.7088 113.931 35.7088" fill="#736B63"/>
<path d="M123.845 52.2139C122.909 52.2139 122.179 51.4946 122.179 50.3466V50.2913C122.179 49.1917 122.84 48.4033 123.735 48.4033C124.727 48.4033 125.25 49.2332 125.25 50.3328C125.25 50.3812 125.25 50.4918 125.243 50.6025H122.957C123.026 51.218 123.405 51.5499 123.88 51.5499C124.224 51.5499 124.479 51.3978 124.72 51.1627L125.126 51.6468C124.796 51.9995 124.389 52.2139 123.845 52.2139ZM122.95 50.0631H124.493C124.451 49.4822 124.19 49.0603 123.735 49.0603C123.308 49.0603 123.005 49.4407 122.95 50.0631Z" fill="#38332F"/>
<path d="M119.977 52.1378V48.4725H120.755V49.1917C120.948 48.7145 121.299 48.3895 121.85 48.4172V49.2678H121.815C121.182 49.2678 120.755 49.6827 120.755 50.5195V52.1378H119.977Z" fill="#38332F"/>
<path d="M118.617 52.193C118.08 52.193 117.673 51.9647 117.673 51.2524V49.1432H117.274V48.4723H117.673V47.4834H118.452V48.4723H119.271V49.1432H118.452V51.0934C118.452 51.3769 118.596 51.4945 118.844 51.4945C118.996 51.4945 119.133 51.4599 119.264 51.3907V52.0339C119.085 52.1307 118.879 52.193 118.617 52.193Z" fill="#38332F"/>
<path d="M113.789 52.1378V48.4725H114.567V49.0119C114.774 48.6869 115.07 48.4033 115.566 48.4033C116.268 48.4033 116.688 48.9012 116.688 49.6827V52.1378H115.91V49.904C115.91 49.3923 115.669 49.1087 115.256 49.1087C114.85 49.1087 114.567 49.413 114.567 49.9179V52.1378H113.789Z" fill="#38332F"/>
<path d="M111.679 52.2139C110.743 52.2139 110.013 51.4946 110.013 50.3466V50.2913C110.013 49.1917 110.674 48.4033 111.569 48.4033C112.561 48.4033 113.084 49.2332 113.084 50.3328C113.084 50.3812 113.084 50.4918 113.077 50.6025H110.791C110.86 51.218 111.239 51.5499 111.714 51.5499C112.058 51.5499 112.313 51.3978 112.554 51.1627L112.96 51.6468C112.63 51.9995 112.223 52.2139 111.679 52.2139ZM110.784 50.0631H112.327C112.285 49.4822 112.024 49.0603 111.569 49.0603C111.142 49.0603 110.839 49.4407 110.784 50.0631Z" fill="#38332F"/>
<path d="M108.033 52.2068C106.8 52.2068 105.918 51.2248 105.918 49.7448V49.6964C105.918 48.2303 106.828 47.2275 108.074 47.2275C108.749 47.2275 109.197 47.4696 109.589 47.8292L109.107 48.4447C108.825 48.1819 108.508 47.9744 108.074 47.9744C107.316 47.9744 106.745 48.666 106.745 49.6964V49.7241C106.745 50.7753 107.316 51.4599 108.074 51.4599C108.535 51.4599 108.838 51.2455 109.141 50.9551L109.61 51.5222C109.19 51.9579 108.701 52.2068 108.033 52.2068Z" fill="#38332F"/>
<path d="M101.511 52.2068C100.781 52.2068 100.093 51.5913 100.093 50.3534V50.2635C100.093 49.0256 100.775 48.4032 101.511 48.4032C102.042 48.4032 102.359 48.7075 102.579 49.0256V47.1445H103.357V52.1376H102.579V51.5498C102.352 51.9025 102.035 52.2068 101.511 52.2068ZM101.725 51.5152C102.193 51.5152 102.593 51.0588 102.593 50.3396V50.2704C102.593 49.5512 102.193 49.0947 101.725 49.0947C101.25 49.0947 100.878 49.5373 100.878 50.2773V50.3327C100.878 51.0657 101.257 51.5152 101.725 51.5152Z" fill="#38332F"/>
<path d="M98.5439 52.1376V47.1445H99.3222V52.1376H98.5439Z" fill="#38332F"/>
<path d="M96.7744 47.94V47.1724H97.6008V47.94H96.7744ZM96.802 52.1378V48.4725H97.5802V52.1378H96.802Z" fill="#38332F"/>
<path d="M94.1025 52.2069C93.3932 52.2069 92.98 51.7159 92.98 50.9275V48.4724H93.7582V50.7062C93.7582 51.2179 93.9992 51.5015 94.4056 51.5015C94.8119 51.5015 95.0942 51.1972 95.0942 50.6923V48.4724H95.8793V52.1377H95.0942V51.6052C94.8876 51.9302 94.5984 52.2069 94.1025 52.2069Z" fill="#38332F"/>
<path d="M88.813 52.1376V47.2966H90.5347C91.0581 47.2966 91.4989 47.4419 91.7674 47.7116C91.9809 47.926 92.0911 48.1957 92.0911 48.5276V48.5484C92.0911 49.1431 91.7468 49.4543 91.3818 49.6341C91.9121 49.8208 92.2977 50.139 92.2977 50.789V50.8167C92.2977 51.6673 91.609 52.1376 90.5829 52.1376H88.813ZM91.2922 48.6728V48.659C91.2922 48.251 90.9961 48.0159 90.4796 48.0159H89.5981V49.3575H90.4314C90.9548 49.3575 91.2922 49.1224 91.2922 48.6728ZM91.4989 50.7199C91.4989 50.298 91.1752 50.0352 90.5691 50.0352H89.5981V51.4184H90.6036C91.1545 51.4184 91.4989 51.1763 91.4989 50.7337V50.7199Z" fill="#38332F"/>
<path d="M85.7757 52.2276L85.2385 51.6121C84.8873 51.9787 84.4672 52.2069 83.93 52.2069C83.1174 52.2069 82.4976 51.6675 82.4976 50.8583V50.8376C82.4976 50.229 82.835 49.7726 83.4411 49.4476C83.1656 49.0603 83.0347 48.7491 83.0347 48.4033V48.3756C83.0347 47.7601 83.5168 47.2207 84.2881 47.2207C84.9906 47.2207 85.4589 47.7117 85.4589 48.3341V48.3549C85.4589 48.9634 85.087 49.3507 84.5016 49.6343L85.2454 50.5264C85.39 50.2705 85.514 49.987 85.6448 49.6481L86.2578 49.904C86.0994 50.3397 85.9203 50.7269 85.6999 51.0589L86.3611 51.8196L85.7757 52.2276ZM84.1091 49.1778C84.5429 48.9704 84.7564 48.7214 84.7564 48.3895V48.3756C84.7564 48.0713 84.5567 47.8569 84.2744 47.8569C83.9713 47.8569 83.7647 48.0921 83.7647 48.3964V48.4102C83.7647 48.6522 83.8543 48.8528 84.1091 49.1778ZM84.0196 51.5361C84.3157 51.5361 84.5774 51.377 84.8184 51.1281L83.8543 49.9593C83.4617 50.1806 83.2964 50.4987 83.2964 50.803V50.8238C83.2964 51.2387 83.5926 51.5361 84.0196 51.5361Z" fill="#38332F"/>
<path d="M77.1963 52.1378V48.4725H77.9745V49.0119C78.1811 48.6869 78.4772 48.4033 78.9731 48.4033C79.6755 48.4033 80.0956 48.9012 80.0956 49.6827V52.1378H79.3174V49.904C79.3174 49.3923 79.0764 49.1087 78.6632 49.1087C78.2569 49.1087 77.9745 49.413 77.9745 49.9179V52.1378H77.1963Z" fill="#38332F"/>
<path d="M74.5856 53.1959C74.0828 53.1959 73.6214 53.0783 73.2013 52.8501L73.4561 52.2346C73.7729 52.4282 74.1586 52.5458 74.5511 52.5458C75.1916 52.5458 75.5428 52.2277 75.5428 51.5776V51.2249C75.288 51.5845 74.9712 51.8681 74.4409 51.8681C73.7109 51.8681 73.0498 51.2802 73.0498 50.153V50.1253C73.0498 48.9911 73.7178 48.4033 74.4409 48.4033C74.9781 48.4033 75.3018 48.6938 75.536 49.0188V48.4725H76.3142V51.543C76.3142 52.0894 76.1695 52.4905 75.901 52.7602C75.6117 53.0576 75.1641 53.1959 74.5856 53.1959ZM74.6751 51.1903C75.1434 51.1903 75.5497 50.7823 75.5497 50.1461V50.1322C75.5497 49.4891 75.1434 49.088 74.6751 49.088C74.1999 49.088 73.8349 49.4822 73.8349 50.1322V50.1392C73.8349 50.7892 74.2068 51.1903 74.6751 51.1903Z" fill="#38332F"/>
<path d="M71.4731 47.94V47.1724H72.2996V47.94H71.4731ZM71.5007 52.1378V48.4725H72.2789V52.1378H71.5007Z" fill="#38332F"/>
<path d="M69.5271 52.2068C69.0932 52.2068 68.5905 52.0477 68.1704 51.695L68.5354 51.1348C68.866 51.4046 69.2172 51.5636 69.5409 51.5636C69.8646 51.5636 70.0505 51.3907 70.0505 51.1625V51.1556C70.0505 50.8928 69.7682 50.7752 69.3343 50.5885C68.7902 50.3534 68.3357 50.1044 68.3357 49.5027V49.4889C68.3357 48.8319 68.8591 48.417 69.5409 48.417C69.9472 48.417 70.3811 48.5622 70.7254 48.8112L70.3949 49.3852C70.1194 49.1985 69.8164 49.0601 69.5271 49.0601C69.2379 49.0601 69.0657 49.2192 69.0657 49.4198V49.4336C69.0657 49.6756 69.3549 49.8001 69.7819 49.9938C70.3467 50.2496 70.7736 50.5124 70.7736 51.0864V51.0934C70.7736 51.8126 70.2296 52.2068 69.5271 52.2068Z" fill="#38332F"/>
<path d="M66.3629 52.2139C65.4263 52.2139 64.6963 51.4946 64.6963 50.3466V50.2913C64.6963 49.1917 65.3574 48.4033 66.2527 48.4033C67.2444 48.4033 67.7678 49.2332 67.7678 50.3328C67.7678 50.3812 67.7678 50.4918 67.7609 50.6025H65.4745C65.5434 51.218 65.9221 51.5499 66.3973 51.5499C66.7417 51.5499 66.9965 51.3978 67.2375 51.1627L67.6439 51.6468C67.3133 51.9995 66.907 52.2139 66.3629 52.2139ZM65.4676 50.0631H67.0103C66.9689 49.4822 66.7072 49.0603 66.2527 49.0603C65.8257 49.0603 65.5227 49.4407 65.4676 50.0631Z" fill="#38332F"/>
<path d="M60.3174 52.1376V47.2966H61.7912C63.1685 47.2966 64.0776 48.2648 64.0776 49.6825V49.7379C64.0776 51.1556 63.1685 52.1376 61.7912 52.1376H60.3174ZM61.7843 48.0228H61.1163V51.4114H61.7843C62.6658 51.4114 63.2512 50.7821 63.2512 49.7448V49.7033C63.2512 48.659 62.6658 48.0228 61.7843 48.0228Z" fill="#38332F"/>
</g>
<defs>
<clipPath id="clip0_449_4967">
<rect width="126.483" height="56" fill="white"/>
</clipPath>
</defs>
</svg>
